<svg xmlns="http://www.w3.org/2000/svg" xmlns:xlink="http://www.w3.org/1999/xlink" width="500" zoomAndPan="magnify" viewBox="0 0 375 374.999991" height="500" preserveAspectRatio="xMidYMid meet" version="1.0"><defs><clipPath id="3a82f94b7c"><path d="M 22.363281 50.09375 L 223 50.09375 L 223 324.59375 L 22.363281 324.59375 Z M 22.363281 50.09375 " clip-rule="nonzero"/></clipPath><clipPath id="872b27dd23"><path d="M 272 50.09375 L 352.363281 50.09375 L 352.363281 117 L 272 117 Z M 272 50.09375 " clip-rule="nonzero"/></clipPath><clipPath id="8340dd0bdf"><path d="M 272 257 L 352.363281 257 L 352.363281 324.59375 L 272 324.59375 Z M 272 257 " clip-rule="nonzero"/></clipPath><clipPath id="5deb3c9ff6"><path d="M 330.402344 300.015625 L 352.636719 300.015625 L 352.636719 324.90625 L 330.402344 324.90625 Z M 330.402344 300.015625 " clip-rule="nonzero"/></clipPath></defs><rect x="-37.5" width="450" fill="#ffffff" y="-37.499999" height="449.999989" fill-opacity="1"/><rect x="-37.5" width="450" fill="#ffffff" y="-37.499999" height="449.999989" fill-opacity="1"/><g clip-path="url(#3a82f94b7c)"><path fill="#242424" d="M 198.96875 197.082031 C 206.222656 203.925781 211.90625 211.9375 216.015625 221.109375 C 220.121094 230.285156 222.105469 240.210938 222.105469 250.824219 C 222.105469 261.914062 219.917969 272.183594 215.535156 281.628906 C 211.152344 291.078125 205.128906 299.226562 197.390625 306.070312 C 190.820312 311.890625 183.359375 316.476562 175.003906 319.832031 C 166.652344 323.1875 157.683594 324.828125 148.238281 324.828125 C 151.867188 324.828125 155.289062 324.144531 158.371094 322.777344 C 161.519531 321.40625 164.257812 319.488281 166.585938 317.09375 C 168.914062 314.699219 170.761719 311.960938 172.128906 308.808594 C 173.5 305.660156 174.183594 302.304688 174.183594 298.675781 C 174.183594 294.914062 173.429688 291.351562 171.925781 288.066406 C 170.417969 284.78125 168.363281 281.972656 165.898438 279.644531 C 165.488281 279.234375 164.804688 278.6875 163.914062 278.140625 L 85.457031 211.9375 L 60.332031 190.988281 L 61.222656 189.890625 L 61.015625 189.890625 L 60.332031 190.988281 L 52.664062 184.414062 C 51.5 183.523438 50.40625 182.636719 49.308594 181.675781 C 48.214844 180.71875 47.117188 179.761719 45.957031 178.734375 C 38.699219 171.886719 32.949219 163.875 28.839844 154.703125 C 24.59375 145.527344 22.542969 135.601562 22.542969 124.992188 C 22.542969 114.105469 24.730469 103.90625 29.183594 94.386719 C 33.632812 84.941406 39.726562 76.792969 47.460938 69.949219 C 54.035156 63.992188 61.425781 59.335938 69.710938 56.050781 C 77.996094 52.832031 86.964844 51.1875 96.546875 51.1875 C 92.917969 51.1875 89.496094 51.875 86.417969 53.242188 C 83.265625 54.613281 80.527344 56.460938 78.199219 58.789062 C 75.871094 61.117188 74.023438 63.855469 72.65625 67.003906 C 71.285156 70.152344 70.601562 73.507812 70.601562 77.136719 C 70.601562 80.902344 71.355469 84.460938 72.859375 87.746094 C 74.367188 91.035156 76.421875 93.910156 78.886719 96.375 C 79.773438 96.988281 80.390625 97.46875 80.871094 97.878906 L 114.484375 126.019531 L 192.257812 191.328125 C 193.421875 192.355469 194.515625 193.316406 195.613281 194.136719 C 196.707031 195.09375 197.804688 196.054688 198.96875 197.082031 Z M 65.808594 240.28125 C 71.628906 240.28125 77.105469 241.375 82.308594 243.632812 C 87.441406 245.894531 91.960938 248.90625 95.726562 252.671875 C 99.492188 256.4375 102.503906 260.957031 104.765625 266.089844 C 107.023438 271.292969 108.117188 276.769531 108.117188 282.589844 C 108.117188 288.410156 107.023438 293.886719 104.765625 299.089844 C 102.503906 304.292969 99.492188 308.742188 95.726562 312.507812 C 91.960938 316.273438 87.441406 319.285156 82.308594 321.542969 C 77.105469 323.804688 71.628906 324.898438 65.808594 324.898438 C 59.851562 324.898438 54.238281 323.804688 49.105469 321.542969 C 43.902344 319.285156 39.453125 316.273438 35.6875 312.507812 C 31.921875 308.742188 28.910156 304.222656 26.648438 299.089844 C 24.320312 293.953125 23.226562 288.476562 23.226562 282.65625 C 23.226562 276.839844 24.320312 271.363281 26.582031 266.160156 C 28.839844 261.023438 31.851562 256.503906 35.617188 252.738281 C 39.382812 248.972656 43.902344 245.960938 49.035156 243.703125 C 54.238281 241.445312 59.785156 240.28125 65.808594 240.28125 Z M 207.523438 120.199219 L 124.273438 50.777344 L 207.457031 50.777344 L 207.457031 120.199219 Z M 207.523438 120.199219 " fill-opacity="1" fill-rule="nonzero"/></g><path fill="#ed1c24" d="M 259.351562 175.859375 L 304.601562 175.859375 L 304.601562 198.382812 L 259.351562 198.382812 Z M 259.351562 175.859375 " fill-opacity="1" fill-rule="nonzero"/><g clip-path="url(#872b27dd23)"><path fill="#ed1c24" d="M 272.359375 50.09375 L 352.457031 116.914062 L 352.457031 50.09375 Z M 272.359375 50.09375 " fill-opacity="1" fill-rule="nonzero"/></g><g clip-path="url(#8340dd0bdf)"><path fill="#ed1c24" d="M 352.457031 324.144531 L 352.457031 257.328125 L 272.359375 324.144531 Z M 352.457031 324.144531 " fill-opacity="1" fill-rule="nonzero"/></g><g clip-path="url(#5deb3c9ff6)"><path fill="#ed1c24" d="M 330.402344 300.015625 L 352.636719 300.015625 L 352.636719 324.945312 L 330.402344 324.945312 Z M 330.402344 300.015625 " fill-opacity="1" fill-rule="nonzero"/></g></svg>